<svg width="1104" height="206" viewBox="0 0 1104 206" fill="none" xmlns="http://www.w3.org/2000/svg">
<rect width="1104" height="206" fill="#5D5DFF"/>
<mask id="mask0_0_619" style="mask-type:alpha" maskUnits="userSpaceOnUse" x="0" y="0" width="1104" height="206">
<rect width="1104" height="206" fill="white"/>
</mask>
<g mask="url(#mask0_0_619)">
<path fill-rule="evenodd" clip-rule="evenodd" d="M1286.81 -54.5819C1286.34 -51.4909 1284.95 -48.4829 1282.92 -45.5579C1283.76 -47.4059 1284.35 -49.2899 1284.62 -51.2139C1285.38 -56.5009 1283.75 -61.7809 1279.78 -66.9099C1276.34 -71.3299 1270.87 -72.8849 1263.96 -72.3319C1272.41 -74.0629 1278.93 -73.2529 1282.43 -68.7259C1286.11 -63.9759 1287.54 -59.3489 1286.81 -54.5819ZM1271.56 23.1011C1274.41 23.7821 1275.35 24.6031 1275.29 25.0991C1275.22 25.7311 1274.57 26.4601 1273.43 27.2641C1272.8 25.2881 1269.66 24.5251 1268.53 24.2501C1245.5 18.6951 1233.67 12.8001 1232.37 6.22812C1232.25 5.62112 1232.23 5.0061 1232.28 4.38611C1232.49 4.17212 1232.7 3.95711 1232.9 3.74211C1234.77 11.0851 1247.09 17.2491 1271.56 23.1011ZM1235.5 56.0511C1235.31 55.9131 1235.1 55.7831 1234.86 55.6641C1236.78 54.9441 1238.56 54.2371 1240.19 53.5461C1239.14 54.2661 1237.57 55.1051 1235.5 56.0511ZM1232.43 59.6831C1232.41 59.6471 1232.39 59.6101 1232.36 59.5731C1232.58 59.4851 1232.79 59.3971 1233 59.3111C1232.83 59.4301 1232.64 59.5541 1232.43 59.6831ZM1070.85 107.385C1062.14 107.999 1058.73 98.8051 1055.09 89.0851C1052.38 81.8341 1049.58 74.4171 1044.31 71.7131C1050.04 73.0191 1053.14 80.1231 1056.38 87.5751C1060.33 96.6671 1064.4 106.057 1073.76 106.057C1074.07 106.057 1074.38 106.047 1074.7 106.026C1091.57 104.937 1125.62 97.6261 1155 90.1581C1124.75 98.0641 1088.2 106.178 1070.85 107.385ZM972.333 78.6181C971.369 78.7391 970.465 78.8821 969.594 79.0331C971.205 78.6741 972.985 78.3551 974.997 78.1341C978.411 77.7631 981.659 77.4541 984.786 77.1811C980.866 77.6011 976.733 78.0701 972.333 78.6181ZM948.517 75.8161C944.453 68.1341 938.841 67.0121 932.901 65.8241C928.128 64.8691 923.195 63.8821 918.171 59.5151C905.004 48.0691 866.781 -1.8069 858.528 -15.2939C858.484 -15.3669 858.443 -15.4359 858.405 -15.4999C858.867 -15.3069 859.455 -15.0149 860.122 -14.6599C860.224 -13.8969 860.727 -13.1049 861.027 -12.6339C869.976 1.40311 907.176 47.3561 920.447 58.8441C925.82 63.4981 931.08 64.5741 935.722 65.5231C941.458 66.6961 945.989 67.6231 949.522 74.4991C952.564 80.4181 954.979 82.0631 958.29 81.8731C953.907 82.9571 951.96 82.3251 948.517 75.8161ZM974.932 -49.8029C977.054 -53.7169 976.197 -60.7589 973.502 -69.7879C976.502 -60.5269 977.691 -53.3189 975.808 -49.6459C973.421 -44.9899 968.601 -42.2919 962.613 -40.4099C968.013 -42.4419 972.487 -45.2909 974.932 -49.8029ZM931.282 -230.71C945.067 -233.49 988.648 -216.458 1020.47 -204.017C1036.23 -197.855 1049.84 -192.534 1056.63 -190.83C1057.18 -190.692 1057.71 -190.636 1058.23 -190.649C1057.42 -190.307 1056.58 -190.215 1055.72 -190.432C1049.07 -192.101 1035.65 -197.336 1020.11 -203.398C986.787 -216.396 945.32 -232.569 931.043 -229.781C930.118 -229.6 929.318 -229.255 928.637 -228.762C929.197 -229.812 930.056 -230.462 931.282 -230.71ZM1127.54 -249.003C1143.77 -245.805 1147.4 -226.857 1146.94 -204.765C1146.91 -225.907 1142.58 -243.71 1126.12 -246.996C1111.43 -249.946 1100.53 -246.46 1092.16 -240.059C1100.53 -247.684 1111.71 -252.124 1127.54 -249.003ZM1145.35 -125.767C1145.7 -125.449 1146.08 -125.237 1146.48 -125.113C1145.78 -124.876 1145.23 -124.885 1144.87 -125.218C1143.33 -126.652 1142.51 -129.556 1142.17 -133.471C1142.67 -129.942 1143.67 -127.301 1145.35 -125.767ZM1237.16 -138.724C1245.42 -131.88 1249.34 -124.099 1248.81 -115.596C1248.4 -109.084 1245.42 -102.33 1240.66 -95.5129C1244.38 -101.508 1246.67 -107.478 1247.03 -113.332C1247.57 -122.317 1243.49 -130.492 1234.88 -137.629C1217.59 -151.967 1202.28 -154.276 1189.36 -151.392C1189.66 -151.483 1189.96 -151.586 1190.27 -151.672C1206.02 -156.051 1221.36 -151.815 1237.16 -138.724ZM1282.64 -51.4979C1282.19 -48.3279 1280.79 -45.2379 1278.74 -42.2299C1279.61 -44.1729 1280.22 -46.1529 1280.48 -48.1739C1281.19 -53.4809 1279.53 -58.7629 1275.55 -63.8739C1271.97 -68.4749 1266.43 -70.1479 1259.54 -69.6859C1267.95 -71.3299 1274.53 -70.4029 1278.2 -65.6839C1281.88 -60.9359 1283.33 -56.2949 1282.64 -51.4979ZM1241.72 49.3891C1241.37 49.2461 1241 49.1131 1240.57 48.9981C1240.46 48.9691 1240.36 48.9391 1240.25 48.9101C1243.42 47.8451 1246.42 46.7661 1249.13 45.6911C1249.19 45.7661 1249.21 45.8231 1249.21 45.8581C1249.2 45.9121 1249.18 45.9711 1249.16 46.0281C1247.35 47.0101 1244.87 48.1361 1241.72 49.3891ZM1230.13 58.2971C1230.12 58.2931 1230.11 58.2881 1230.09 58.2841C1229.6 58.1461 1229.14 58.0051 1228.67 57.8661C1229.75 57.4981 1230.81 57.1321 1231.83 56.7691C1232.24 56.8851 1232.63 57.0041 1233.05 57.1201C1232.15 57.4991 1231.17 57.8911 1230.13 58.2971ZM1227.98 61.9701C1227.76 61.8281 1227.47 61.6961 1227.15 61.5741C1228.24 61.1771 1229.25 60.7961 1230.2 60.4291C1230.45 60.5301 1230.59 60.6151 1230.67 60.6721C1229.9 61.0741 1229.01 61.5051 1227.98 61.9701ZM1059.55 85.3721C1063.83 93.8961 1068.24 102.701 1077.51 102.7C1077.81 102.7 1078.11 102.69 1078.41 102.672C1095.76 101.639 1130.69 94.2231 1160.32 86.7241C1129.86 94.6541 1092.43 102.877 1074.57 104.03C1065.94 104.582 1062.19 95.9371 1058.21 86.7791C1055.28 80.0241 1052.27 73.1221 1047.05 70.5471C1052.75 71.7911 1056.07 78.4251 1059.55 85.3721ZM977.417 75.6621C982.05 75.2331 986.327 74.9381 990.4 74.7121C985.556 75.0851 980.373 75.5381 974.781 76.1461C973.683 76.2661 972.662 76.4181 971.687 76.5841C973.376 76.1971 975.259 75.8631 977.417 75.6621ZM864.6 -12.0929C864.779 -11.7399 864.997 -11.3809 865.235 -11.0229C874.525 2.98611 910.646 45.1151 924.038 56.6621C929.36 61.2511 934.45 62.3161 938.94 63.2551C944.477 64.4141 948.85 65.3291 952.299 72.2421C955.143 77.9441 957.412 79.6201 960.447 79.5131C956.386 80.5621 954.556 79.9181 951.301 73.5851C947.329 65.8561 941.886 64.7421 936.123 63.5641C931.507 62.6191 926.734 61.6431 921.755 57.3331C908.82 46.1341 872.971 1.9241 863.246 -12.8939C863.69 -12.6329 864.142 -12.3659 864.6 -12.0929ZM888.298 -7.3299C888.249 -7.2179 888.195 -7.10989 888.161 -6.98788C887.618 -7.13589 887.07 -7.2979 886.516 -7.47389C886.605 -7.51889 886.705 -7.56189 886.827 -7.6019C887.312 -7.5049 887.802 -7.41389 888.298 -7.3299ZM1054.32 -188.1C1047.69 -189.764 1034.4 -194.936 1019.02 -200.924C986.212 -213.69 945.386 -229.573 931.209 -226.896C930.26 -226.717 929.44 -226.37 928.747 -225.865C929.312 -226.925 930.183 -227.575 931.428 -227.818C945.109 -230.501 988.044 -213.759 1019.38 -201.535C1034.99 -195.448 1048.46 -190.191 1055.23 -188.492C1055.8 -188.349 1056.35 -188.291 1056.88 -188.306C1056.05 -187.967 1055.2 -187.88 1054.32 -188.1ZM1144.91 -201.184C1144.86 -222.09 1140.6 -239.744 1124.32 -243.035C1109.78 -246.012 1098.98 -242.611 1090.67 -236.337C1098.98 -243.823 1110.06 -248.178 1125.73 -245.035C1141.77 -241.833 1145.35 -223.035 1144.91 -201.184ZM1143.05 -123.199C1141.54 -124.626 1140.74 -127.476 1140.39 -131.305C1140.9 -127.863 1141.87 -125.275 1143.51 -123.753C1143.87 -123.417 1144.26 -123.197 1144.68 -123.068C1143.97 -122.834 1143.41 -122.85 1143.05 -123.199ZM1243.25 -111.197C1243.77 -119.991 1239.76 -128.001 1231.32 -135.003C1213.66 -149.67 1198.12 -151.579 1185.16 -148.274C1198.51 -152.747 1214.72 -151.757 1233.6 -136.09C1241.69 -129.382 1245.54 -121.767 1245.03 -113.454C1244.6 -106.449 1241.24 -99.2229 1235.87 -91.9589C1240.2 -98.4359 1242.88 -104.89 1243.25 -111.197ZM1278.5 -48.4369C1278.08 -45.2669 1276.73 -42.1689 1274.74 -39.1479C1277.68 -45.9029 1277.36 -53.0999 1271.32 -60.8349C1267.54 -65.6679 1261.87 -67.4509 1254.9 -67.0299C1263.38 -68.6479 1270.1 -67.6189 1273.97 -62.6449C1277.66 -57.9069 1279.14 -53.2589 1278.5 -48.4369ZM1264.59 31.6061C1263.52 30.9291 1262.18 30.5921 1261.54 30.4331C1240.12 25.1731 1229.03 19.4531 1227.63 12.9471C1227.35 11.6541 1227.46 10.3251 1227.9 8.96411C1227.93 9.30411 1227.97 9.64511 1228.04 9.98511C1229.58 17.4651 1241.19 23.5971 1264.56 29.2831C1266.08 29.6551 1266.97 30.0661 1267.43 30.4271C1266.54 30.8121 1265.6 31.2041 1264.59 31.6061ZM1229.11 53.8611C1228.31 53.6081 1227.54 53.3521 1226.79 53.0921C1230.18 52.1071 1233.57 51.0811 1236.83 50.0331C1237.43 50.2081 1238.07 50.3781 1238.69 50.5501C1235.91 51.5831 1232.73 52.6881 1229.11 53.8611ZM1223.95 60.5821C1223.33 60.3881 1222.73 60.1921 1222.15 59.9941C1223.26 59.6451 1224.34 59.2981 1225.4 58.9511C1225.94 59.1251 1226.48 59.2991 1227.04 59.4701C1226.06 59.8331 1225.03 60.2031 1223.95 60.5821ZM1222.44 64.2721C1221.9 64.1091 1221.36 63.9461 1220.83 63.7801C1221.88 63.4281 1222.91 63.0791 1223.9 62.7351C1223.94 62.7211 1223.97 62.7081 1224.01 62.6941C1224.46 62.8311 1224.91 62.9661 1225.37 63.1011C1224.47 63.4741 1223.49 63.8661 1222.44 64.2721ZM1062.75 83.1781C1067.34 91.1291 1072.09 99.3431 1081.26 99.3431C1081.54 99.3431 1081.83 99.3351 1082.12 99.3191C1099.91 98.3491 1135.59 90.8631 1165.41 83.3561C1134.79 91.2931 1096.62 99.5851 1078.29 100.676C1069.73 101.186 1065.65 93.0691 1061.34 84.4761C1058.22 78.2471 1055.01 71.8881 1049.89 69.4151C1055.5 70.6521 1059.04 76.7661 1062.75 83.1781ZM979.833 73.1911C985.532 72.7571 990.713 72.5521 995.624 72.4481C989.964 72.6961 983.961 73.0481 977.233 73.6701C976.054 73.7801 974.962 73.9311 973.928 74.1031C975.657 73.7001 977.593 73.3641 979.833 73.1911ZM869.702 -9.03189C879.304 4.68411 914.136 42.9011 927.626 54.4831C932.896 59.0081 937.816 60.0621 942.156 60.9921C947.493 62.1361 951.708 63.0391 955.071 69.9901C957.716 75.4581 959.836 77.1781 962.605 77.1651C961.197 77.5411 960.04 77.6891 959.047 77.3771C957.424 76.8651 955.941 75.0631 954.088 71.3501C950.207 63.5691 944.933 62.4661 939.349 61.2971C934.888 60.3641 930.275 59.3991 925.344 55.1471C913.05 44.5471 879.747 5.9151 868.584 -9.7009C868.955 -9.47789 869.327 -9.2549 869.702 -9.03189ZM923.922 -27.5809C923.916 -27.5849 923.912 -27.5889 923.907 -27.5939C924.004 -27.6629 924.1 -27.7319 924.2 -27.7999C924.107 -27.7279 924.013 -27.6549 923.922 -27.5809ZM1052.93 -185.766C1046.32 -187.426 1033.16 -192.532 1017.93 -198.445C985.647 -210.979 945.471 -226.576 931.374 -224.012C930.406 -223.835 929.568 -223.486 928.863 -222.974C929.434 -224.042 930.317 -224.692 931.58 -224.931C945.191 -227.504 987.445 -211.064 1018.29 -199.06C1033.74 -193.047 1047.08 -187.855 1053.84 -186.16C1054.43 -186.01 1055.01 -185.948 1055.57 -185.967C1054.71 -185.62 1053.84 -185.538 1052.93 -185.766ZM1142.89 -197.625C1142.81 -218.284 1138.6 -235.777 1122.52 -239.073C1108.74 -241.945 1098.43 -239.196 1090.39 -233.678C1098.51 -240.373 1109.17 -244.093 1123.92 -241.076C1139.77 -237.87 1143.3 -219.228 1142.89 -197.625ZM1141.23 -121.179C1139.75 -122.607 1138.95 -125.43 1138.61 -129.213C1139.11 -125.823 1140.07 -123.267 1141.67 -121.748C1142.05 -121.389 1142.46 -121.16 1142.9 -121.027C1142.18 -120.793 1141.6 -120.813 1141.23 -121.179ZM1239.48 -109.055C1239.98 -117.66 1236.03 -125.505 1227.76 -132.373C1210.38 -146.829 1195.12 -148.725 1182.42 -145.505C1195.51 -149.893 1211.43 -148.924 1230.04 -133.464C1237.97 -126.891 1241.74 -119.439 1241.26 -111.315C1240.85 -104.478 1237.56 -97.4129 1232.31 -90.3049C1236.52 -96.6229 1239.13 -102.914 1239.48 -109.055ZM1270.57 -35.8279C1273.51 -42.6939 1273.19 -49.9879 1267.08 -57.7899C1262.88 -63.1559 1256.62 -64.9729 1249.01 -64.2919C1258.11 -66.2089 1265.4 -65.1619 1269.74 -59.6039C1276.34 -51.1499 1275.31 -43.2479 1270.57 -35.8279ZM1220.23 54.9511C1221.31 54.6501 1222.41 54.3441 1223.51 54.0331C1224.27 54.3231 1225.06 54.6101 1225.87 54.8941C1224.83 55.2211 1223.74 55.5541 1222.64 55.8911C1221.8 55.5831 1221 55.2691 1220.23 54.9511ZM1215.73 61.9521C1216.83 61.6271 1217.91 61.3031 1218.96 60.9811C1219.57 61.2091 1220.2 61.4331 1220.83 61.6551C1219.82 61.9981 1218.77 62.3461 1217.69 62.7001C1217.02 62.4541 1216.36 62.2051 1215.73 61.9521ZM1179.24 73.6541C1148.53 81.4721 1108.87 89.7481 1089.46 90.6111C1081.08 90.9881 1075.86 84.1761 1070.81 77.5941C1066.38 71.8281 1061.83 65.9191 1055.19 64.9791C1055.28 64.9581 1055.36 64.9411 1055.45 64.9191C1063.91 62.8561 1069.71 68.4921 1075.85 74.4631C1081.63 80.0951 1087.61 85.9141 1096.3 85.9141C1096.52 85.9141 1096.75 85.9101 1096.97 85.9021C1118.89 85.1471 1174.62 73.8701 1212.72 62.8341C1213.35 63.1181 1214 63.3971 1214.67 63.6731C1205.23 66.6721 1193.39 70.0481 1179.24 73.6541ZM925.539 -26.2349C925.519 -26.2529 925.498 -26.2699 925.478 -26.2879C925.772 -26.5189 926.077 -26.7419 926.389 -26.9579C926.098 -26.7249 925.815 -26.4839 925.539 -26.2349ZM1051.53 -183.425C1044.94 -185.081 1031.92 -190.123 1016.84 -195.96C985.075 -208.263 945.525 -223.579 931.538 -221.119C930.544 -220.945 929.686 -220.594 928.966 -220.07C929.543 -221.155 930.444 -221.81 931.733 -222.044C945.268 -224.51 986.85 -208.367 1017.21 -196.581C1032.5 -190.644 1045.71 -185.517 1052.44 -183.826C1053.07 -183.667 1053.68 -183.608 1054.27 -183.633C1053.38 -183.277 1052.47 -183.189 1051.53 -183.425ZM1140.85 -193.436C1140.83 -214.097 1136.75 -231.733 1120.72 -235.102C1106.77 -238.032 1096.4 -235.155 1088.33 -229.499C1096.47 -236.353 1107.18 -240.228 1122.12 -237.114C1137.93 -233.874 1141.32 -215.056 1140.85 -193.436ZM1139.4 -119.149C1137.93 -120.601 1137.14 -123.457 1136.81 -127.276C1137.3 -123.86 1138.24 -121.281 1139.84 -119.741C1140.23 -119.359 1140.66 -119.12 1141.12 -118.981C1140.38 -118.744 1139.79 -118.767 1139.4 -119.149ZM1235.7 -106.902C1236.17 -115.319 1232.3 -123.002 1224.2 -129.736C1207.08 -143.99 1192.1 -145.865 1179.65 -142.723C1192.48 -147.035 1208.13 -146.098 1226.49 -130.834C1234.24 -124.395 1237.94 -117.106 1237.48 -109.17C1237.1 -102.501 1233.89 -95.5969 1228.75 -88.6459C1232.84 -94.8019 1235.37 -100.929 1235.7 -106.902ZM1258.62 -51.7159C1252.44 -59.5679 1242.9 -60.5929 1231.65 -57.6069C1246.55 -63.6709 1258.96 -64.9189 1265.51 -56.5569C1273.88 -45.8629 1270.12 -35.9679 1262.15 -26.7949C1261.6 -26.3979 1261.04 -26.0029 1260.48 -25.6099C1265.12 -33.7489 1265.93 -42.4269 1258.62 -51.7159ZM1213.97 56.6431C1215.01 56.3681 1216.06 56.0861 1217.13 55.7981C1217.89 56.1471 1218.67 56.4921 1219.5 56.8311C1218.47 57.1361 1217.41 57.4441 1216.33 57.7561C1215.51 57.3911 1214.71 57.0211 1213.97 56.6431ZM1210.36 59.4411C1209.6 59.0181 1208.87 58.5861 1208.2 58.1441C1209.17 57.8971 1210.16 57.6421 1211.16 57.3801C1211.87 57.7911 1212.64 58.1901 1213.43 58.5851C1212.43 58.8681 1211.41 59.1531 1210.36 59.4411ZM1079.23 72.2911C1085.28 77.3401 1091.53 82.5571 1100.07 82.5571C1100.27 82.5571 1100.48 82.5541 1100.69 82.5481C1120.76 81.9601 1160.44 74.1071 1190.99 66.5631C1189.66 66.9011 1188.31 67.2421 1186.94 67.5851C1156.39 75.2161 1116.7 83.2221 1096.91 83.9031C1088.69 84.1881 1082.88 78.5141 1077.24 73.0301C1073.35 69.2491 1069.38 65.3971 1064.65 63.5721C1069.98 64.5881 1074.52 68.3531 1079.23 72.2911ZM889.107 0.348114C898.319 10.4421 915.18 24.0251 929.01 35.1651C933.912 39.1121 938.54 42.8411 941.992 45.7561C947.043 50.0221 951.484 51.0791 955.052 51.9281C959.755 53.0461 963.153 53.8551 966.177 60.9671C967.832 64.8611 969.285 66.8141 971.032 67.4981C972.946 68.2481 974.848 67.3911 977.257 66.3081C980.032 65.0611 983.832 63.3531 989.508 63.3021C999.627 63.2121 1008.29 64.2761 1016.67 65.2981C1024.28 66.2271 1031.65 67.1181 1039.31 66.9691C1030.3 67.8841 1021.83 67.3891 1012.43 66.8301C1003.9 66.3231 995.074 65.7991 984.586 66.2471C978.78 66.4991 974.783 68.0731 971.864 69.2221C967.077 71.1061 965.636 71.6711 962.446 64.6481C958.841 56.7131 954.299 55.6901 949.039 54.5061C945.221 53.6461 940.893 52.6701 936.106 48.5951C923.602 37.9461 897.679 13.6831 884.61 -1.12889C886.202 -0.481888 887.714 0.0271149 889.107 0.348114ZM914.412 -23.0789C914.181 -22.6069 913.974 -22.1169 913.783 -21.6119C911.998 -22.6459 910.318 -23.4249 908.792 -23.7539C908.857 -24.2949 908.927 -24.8439 909.008 -25.4009C910.419 -25.3059 912.315 -24.3889 914.412 -23.0789ZM1048.74 -178.755C1042.18 -180.403 1029.43 -185.314 1014.67 -191.001C983.935 -202.842 945.679 -217.584 931.865 -215.347C931.021 -215.211 930.277 -214.943 929.624 -214.56C929.382 -215.39 929.163 -216.192 928.967 -216.968C928.979 -216.994 928.986 -217.026 928.998 -217.051C929.579 -218.225 930.522 -218.911 931.882 -219.149C945.317 -221.502 986.247 -205.664 1016.12 -194.095C1031.26 -188.234 1044.33 -183.171 1051.04 -181.486C1052.62 -181.09 1054.06 -181.277 1055.42 -181.93C1053.26 -179.458 1051.1 -178.164 1048.74 -178.755ZM1200.28 -62.3939C1215.85 -75.6209 1227.46 -89.3799 1228.16 -102.601C1228.58 -110.647 1224.85 -118.008 1217.08 -124.478C1194.83 -143.052 1176.45 -140.021 1162.78 -132.721C1177.25 -142.524 1197.38 -149.466 1222.92 -128.199C1230.51 -121.891 1234.14 -114.764 1233.71 -107.014C1232.91 -92.6309 1218.52 -77.0729 1200.28 -62.3939ZM1254.39 -48.6749C1249.8 -54.4849 1243.74 -56.8279 1236.69 -56.6959C1245.18 -58.0879 1252.28 -56.5309 1257.05 -50.4789C1264.02 -41.6219 1262.79 -33.2059 1257.85 -25.2499C1261.04 -32.6429 1260.89 -40.4419 1254.39 -48.6749ZM1206.12 56.6121C1206.17 56.5991 1206.22 56.5871 1206.27 56.5751C1206.22 56.5871 1206.17 56.6001 1206.12 56.6121H1206.12ZM1198.5 58.5001C1168.16 65.8561 1128.43 73.4511 1108.07 73.8381C1107.93 73.8411 1107.79 73.8431 1107.64 73.8431C1100.01 73.8421 1093.53 69.9641 1087.27 66.2121C1083.16 63.7491 1078.96 61.2441 1074.47 59.8911C1079.72 60.6731 1084.72 63.1511 1089.9 65.7321C1096.58 69.0541 1103.48 72.4871 1111.44 72.4871C1111.57 72.4871 1111.7 72.4861 1111.82 72.4841C1132.51 72.1971 1172.44 64.7071 1202.83 57.4111C1203.14 57.3361 1203.46 57.2591 1203.78 57.1811C1203.79 57.1861 1203.79 57.1901 1203.8 57.1961C1202.08 57.6251 1200.32 58.0591 1198.5 58.5001ZM1086.24 67.9281C1092.74 71.8201 1099.46 75.8431 1107.64 75.8431C1107.79 75.8431 1107.95 75.8411 1108.11 75.8381H1108.11C1128.62 75.4481 1168.53 67.8251 1198.97 60.4441C1200.95 59.9631 1203.21 59.4071 1205.67 58.7871C1206.3 59.2601 1206.98 59.7191 1207.7 60.1711C1202.53 61.5781 1196.91 63.0401 1190.79 64.5521C1160.31 72.0921 1120.62 79.9631 1100.63 80.5491C1092.5 80.7941 1086.42 75.6861 1080.51 70.7551C1075.38 66.4671 1070.1 62.0771 1063.6 61.3921C1071.98 59.4101 1078.92 63.5411 1086.24 67.9281ZM991.686 60.8271C991.764 60.8271 991.843 60.8271 991.921 60.8281C1001.91 60.9221 1010.51 62.2431 1018.82 63.5201C1019.08 63.5601 1019.34 63.5991 1019.6 63.6391C1018.71 63.5321 1017.82 63.4231 1016.91 63.3131C1008.47 62.2831 999.732 61.2331 989.491 61.3021C988.085 61.3151 986.802 61.4281 985.606 61.6001C987.351 61.1451 989.345 60.8271 991.686 60.8271ZM892.29 0.733109C900.27 9.45911 914.602 20.1071 927.371 29.5911C934.322 34.7531 940.887 39.6291 945.578 43.5731C950.572 47.7731 954.843 48.8191 958.276 49.6591C962.764 50.7581 966.007 51.5521 968.949 58.7101C970.544 62.5951 971.953 64.5321 973.657 65.1871C973.882 65.2731 974.109 65.3351 974.334 65.3771C973.303 65.7561 972.462 65.9111 971.761 65.6361C970.594 65.1791 969.405 63.4471 968.017 60.1851C964.598 52.1431 960.389 51.1411 955.515 49.9821C951.979 49.1411 947.969 48.1871 943.283 44.2281C939.813 41.2981 935.388 37.7341 930.265 33.6071C917.265 23.1361 901.572 10.4941 892.207 0.735107C892.235 0.735107 892.263 0.734116 892.29 0.733109ZM916.519 -21.6849C916.325 -21.2229 916.155 -20.7399 915.997 -20.2459C915.837 -20.3499 915.677 -20.4529 915.519 -20.5529C915.691 -21.0449 915.889 -21.5149 916.103 -21.9719C916.241 -21.8779 916.38 -21.7809 916.519 -21.6849ZM934.374 -18.6639C934.252 -18.7669 934.13 -18.8689 934.007 -18.9719C934.957 -20.6869 936.28 -22.0809 937.893 -23.2269C936.428 -21.9759 935.236 -20.4709 934.374 -18.6639ZM1047.35 -176.421C1040.8 -178.064 1028.19 -182.911 1013.58 -188.522C983.371 -200.131 945.76 -214.588 932.034 -212.46C931.447 -212.37 930.912 -212.213 930.415 -212.004C930.356 -212.189 930.306 -212.362 930.247 -212.545C930.77 -212.963 931.403 -213.248 932.182 -213.373C945.488 -215.516 985.051 -200.268 1013.95 -189.135C1028.77 -183.425 1041.57 -178.493 1048.25 -176.816C1048.96 -176.636 1049.65 -176.589 1050.32 -176.627C1049.35 -176.261 1048.37 -176.166 1047.35 -176.421ZM1134.78 -182.802C1134.68 -202.682 1130.74 -219.8 1115.31 -223.21C1101.6 -226.241 1091.41 -223.458 1083.45 -218.001C1091.47 -224.619 1102 -228.411 1116.69 -225.221C1131.9 -221.916 1135.15 -203.617 1134.78 -182.802ZM1133.93 -113.082C1132.54 -114.535 1131.79 -117.3 1131.46 -120.965C1131.94 -117.716 1132.83 -115.237 1134.32 -113.71C1134.77 -113.246 1135.27 -112.968 1135.8 -112.823C1135 -112.579 1134.36 -112.626 1133.93 -113.082ZM1224.39 -100.442C1224.79 -108.305 1221.13 -115.506 1213.53 -121.845C1197.3 -135.407 1183.21 -137.288 1171.57 -134.457C1183.58 -138.451 1198.34 -137.521 1215.8 -122.941C1223.17 -116.811 1226.55 -110.192 1226.16 -102.706C1225.83 -96.4359 1222.85 -89.9879 1218.08 -83.4999C1221.8 -89.1929 1224.1 -94.8699 1224.39 -100.442ZM1249.24 -17.6939C1252.74 -25.6029 1252.81 -33.9149 1245.92 -42.5999C1239.23 -51.0399 1230.29 -52.8489 1220.15 -50.6499C1233.79 -56.0219 1245.6 -56.5759 1252.82 -47.4359C1260.38 -37.8589 1258.43 -28.7279 1252.63 -20.1139C1251.48 -19.2979 1250.34 -18.4919 1249.24 -17.6939ZM1212.45 50.8981C1213.38 50.6771 1214.35 50.4431 1215.37 50.1971L1215.37 50.1981C1214.42 50.4371 1213.45 50.6761 1212.48 50.9171C1212.47 50.9111 1212.46 50.9041 1212.45 50.8981ZM1207.36 52.1601C1207.34 52.1411 1207.33 52.1221 1207.31 52.1031C1208.17 51.9031 1209.03 51.7041 1209.88 51.5051C1209.89 51.5181 1209.91 51.5301 1209.93 51.5431C1209.08 51.7481 1208.22 51.9541 1207.36 52.1601ZM1209.27 53.7611C1209.78 53.6351 1210.32 53.5061 1210.86 53.3731C1210.34 53.5051 1209.81 53.6381 1209.28 53.7711C1209.27 53.7681 1209.27 53.7641 1209.27 53.7611ZM1093.72 63.5181C1100.53 66.2781 1107.55 69.1311 1115.27 69.1311C1115.36 69.1311 1115.45 69.1311 1115.54 69.1301C1135.38 68.9591 1172.48 62.2941 1202.16 55.4381C1202.18 55.4591 1202.19 55.4811 1202.21 55.5011C1171.95 62.7611 1132.3 70.2001 1111.8 70.4841C1104.15 70.6261 1097.36 67.2111 1090.8 63.9411C1086.63 61.8661 1082.38 59.7601 1077.93 58.5831C1083.21 59.2521 1088.37 61.3461 1093.72 63.5181ZM918.648 -20.1639C918.492 -19.7119 918.356 -19.2409 918.233 -18.7599C918.067 -18.8729 917.901 -18.9859 917.736 -19.0969C917.872 -19.5779 918.03 -20.0399 918.203 -20.4889C918.351 -20.3809 918.499 -20.2719 918.648 -20.1639ZM1044.55 -171.751C1038.04 -173.387 1025.7 -178.101 1011.41 -183.56C982.23 -194.707 945.929 -208.59 932.362 -206.686C932.34 -206.683 932.322 -206.678 932.3 -206.674C931.857 -207.848 931.453 -208.978 931.069 -210.083C931.45 -210.264 931.86 -210.41 932.337 -210.483C945.554 -212.519 984.455 -197.572 1012.87 -186.655C1027.53 -181.02 1040.2 -176.154 1046.86 -174.482C1048.72 -174.013 1050.41 -174.32 1052.02 -175.193C1049.6 -172.513 1047.2 -171.09 1044.55 -171.751ZM1188.73 -56.8439C1204.24 -69.7279 1216.22 -83.2419 1216.84 -96.1229C1217.2 -103.622 1213.69 -110.507 1206.41 -116.586C1185.53 -134.094 1168.84 -131.882 1156.19 -125.332C1169.58 -134.21 1188.26 -140.364 1212.25 -120.31C1219.45 -114.311 1222.76 -107.846 1222.39 -100.544C1221.67 -86.3729 1207.02 -71.2169 1188.73 -56.8439ZM1118.37 2.6801C1118.04 2.31711 1117.85 1.9261 1117.78 1.4911C1117.92 1.9601 1118.16 2.39711 1118.5 2.7991C1118.45 2.75711 1118.41 2.7251 1118.37 2.6801ZM1241.3 -11.5329C1244.46 -19.5459 1244.32 -27.9059 1237.46 -36.5149C1230.08 -45.7729 1220.87 -47.7659 1210.75 -45.4989C1224.28 -51.1349 1236.25 -51.5779 1244.36 -41.3559C1251.6 -32.2259 1250.36 -23.3679 1245.51 -14.9299C1244.01 -13.7839 1242.6 -12.6529 1241.3 -11.5329ZM1215.68 48.0221C1217.14 47.6801 1218.72 47.3031 1220.4 46.8951C1218.88 47.2771 1217.32 47.6631 1215.72 48.0511C1215.71 48.0421 1215.69 48.0321 1215.68 48.0221ZM1210.33 49.2541C1211.23 49.0521 1212.11 48.8491 1212.99 48.6461C1213.02 48.6621 1213.04 48.6791 1213.06 48.6951C1212.18 48.9041 1211.31 49.1141 1210.41 49.3251C1210.39 49.3011 1210.36 49.2781 1210.33 49.2541ZM1205.71 50.2891C1206.46 50.1231 1207.21 49.9571 1207.95 49.7901C1207.98 49.8201 1208.01 49.8511 1208.04 49.8801C1207.29 50.0531 1206.55 50.2251 1205.79 50.3971C1205.77 50.3611 1205.73 50.3251 1205.71 50.2891ZM1201.97 51.2621C1201.95 51.2121 1201.93 51.1621 1201.91 51.1121C1202.48 50.9901 1203.05 50.8671 1203.61 50.7441C1203.64 50.7881 1203.67 50.8311 1203.7 50.8741C1203.12 51.0041 1202.55 51.1331 1201.97 51.2621ZM1097.77 61.2781C1104.63 63.4901 1111.72 65.7771 1119.13 65.7761H1119.25H1119.25C1138.1 65.7111 1172.18 59.8971 1200.85 53.5581C1200.88 53.5961 1200.9 53.6331 1200.93 53.6711C1171.49 60.4381 1135.04 66.9611 1115.52 67.1301C1115.44 67.1311 1115.35 67.1311 1115.27 67.1311C1107.95 67.1311 1101.1 64.3531 1094.48 61.6651C1090.32 59.9761 1086.08 58.2631 1081.74 57.2601C1087.02 57.8211 1092.3 59.5161 1097.77 61.2781ZM999.171 53.4061C1008.73 54.0181 1017.14 56.1051 1025.27 58.1241C1027.34 58.6391 1029.39 59.1461 1031.44 59.6241C1028.83 59.1181 1026.2 58.5531 1023.55 57.9781C1015.27 56.1861 1006.72 54.3321 996.846 53.8831C995.38 53.8161 994.046 53.8831 992.818 54.0381C994.604 53.5361 996.688 53.2471 999.171 53.4061ZM932.765 22.9131C941.705 27.5331 950.148 31.8971 956.347 37.0261C961.16 41.0371 964.938 42.0511 967.975 42.8661C971.956 43.9351 974.587 44.6401 977.277 51.9421C978.723 55.8651 979.967 57.6991 981.57 58.2731C981.622 58.2921 981.672 58.2951 981.723 58.3111C980.862 58.7121 980.169 58.9021 979.618 58.6981C978.635 58.3371 977.573 56.6321 976.369 53.4851C973.226 45.2681 969.703 44.3511 965.241 43.1901C962.114 42.3761 958.57 41.4551 954.039 37.6761C948.041 32.6741 939.812 27.7641 931.099 22.5661C928.78 21.1821 926.446 19.7881 924.139 18.3841C926.984 19.9241 929.886 21.4251 932.765 22.9131ZM912.413 -16.5959C911.059 -17.2919 909.712 -17.9299 908.418 -18.3629C908.428 -18.8699 908.444 -19.3839 908.469 -19.9069C909.762 -19.5039 911.235 -18.7609 912.755 -17.8809C912.648 -17.4209 912.534 -16.9899 912.413 -16.5959ZM916.798 -15.3779C916.935 -15.2899 917.07 -15.2049 917.205 -15.1179C917.076 -14.8199 916.935 -14.5499 916.787 -14.3039C916.666 -14.3639 916.547 -14.4239 916.427 -14.4849C916.548 -14.7689 916.664 -15.0719 916.776 -15.3929C916.783 -15.3879 916.79 -15.3829 916.798 -15.3779ZM920.819 -18.5469C920.71 -18.1499 920.614 -17.7429 920.531 -17.3239C920.523 -17.2849 920.513 -17.2499 920.505 -17.2109C920.336 -17.3259 920.17 -17.4389 920.003 -17.5539C920.101 -18.0179 920.219 -18.4639 920.35 -18.8989C920.506 -18.7809 920.663 -18.6639 920.819 -18.5469ZM940.793 -13.7209C940.786 -13.6819 940.776 -13.6539 940.768 -13.6159C940.602 -13.7339 940.439 -13.8479 940.27 -13.9709C940.946 -17.1679 942.614 -19.4829 944.999 -21.1819C942.906 -19.3439 941.423 -16.9289 940.793 -13.7209ZM1041.76 -167.076C1035.28 -168.703 1023.21 -173.284 1009.25 -178.588C982.304 -188.818 949.075 -201.436 934.544 -201.033C934.017 -202.303 933.522 -203.537 933.048 -204.746C946.401 -206.237 982.018 -192.648 1010.7 -181.692C1025.05 -176.21 1037.44 -171.476 1044.07 -169.812C1046.13 -169.295 1048 -169.652 1049.77 -170.669C1047.16 -167.876 1044.59 -166.365 1041.76 -167.076ZM1209.29 -91.7829C1209.61 -98.9209 1206.25 -105.494 1199.29 -111.317C1179.11 -128.285 1163.16 -126.173 1151.14 -119.973C1163.85 -128.468 1181.78 -134.625 1205.13 -115.052C1212 -109.315 1215.18 -103.154 1214.84 -96.2189C1214.22 -83.2549 1201.15 -69.3419 1184.66 -56.0879C1198.5 -67.8649 1208.76 -79.9729 1209.29 -91.7829ZM1237.09 -7.4819C1237.01 -7.3989 1236.94 -7.3149 1236.87 -7.2319C1240.34 -15.6739 1240.42 -24.4739 1233.23 -33.4799C1227.24 -40.9729 1220.3 -43.9129 1212.81 -43.7959C1221.61 -45.3229 1229.55 -43.2249 1235.89 -35.2689C1243.46 -25.7739 1242.05 -16.4219 1237.09 -7.4819ZM1204.05 47.1111C1203.42 45.1501 1203.45 43.0731 1203.97 40.8991C1203.99 42.0181 1204.15 43.1211 1204.48 44.2071C1204.9 45.5631 1205.57 46.8491 1206.48 48.0791C1205.86 48.2191 1205.24 48.3571 1204.62 48.4961C1204.4 48.0411 1204.2 47.5811 1204.05 47.1111ZM1201.36 49.2161C1201.07 47.5831 1201.17 45.8731 1201.58 44.0981C1201.59 45.3251 1201.77 46.5331 1202.14 47.7181C1202.28 48.1321 1202.43 48.5411 1202.61 48.9431C1202.2 49.0351 1201.78 49.1261 1201.36 49.2161ZM1001.59 50.9331C1011.01 51.7111 1019.35 54.0471 1027.41 56.3061C1029.99 57.0291 1032.54 57.7421 1035.09 58.3941C1031.99 57.7321 1028.89 56.9641 1025.75 56.1831C1017.53 54.1431 1009.04 52.0331 999.298 51.4101C997.815 51.3151 996.46 51.3731 995.212 51.5271C996.997 51.0091 999.087 50.7251 1001.59 50.9331ZM935.803 21.8801C944.5 25.6401 953.495 29.5281 959.94 34.8461C964.687 38.7811 968.302 39.7861 971.207 40.5931C975.097 41.6741 977.445 42.3261 980.055 49.6871C981.441 53.5941 982.643 55.4161 984.199 55.9671C983.393 56.3721 982.747 56.5701 982.244 56.3901C981.317 56.0581 980.306 54.3771 979.154 51.2511C976.106 42.9771 972.747 42.0761 968.494 40.9341C965.497 40.1301 962.102 39.2191 957.625 35.4881C951.257 30.2191 942.323 25.6021 933.683 21.1361C932.962 20.7641 932.241 20.3911 931.518 20.0161C932.946 20.6451 934.377 21.2641 935.803 21.8801ZM901.568 -9.7159C901.713 -9.75591 901.86 -9.7919 902.009 -9.8199C901.548 -5.20689 902.381 -0.857895 906.109 3.72411C905.576 3.2021 905.059 2.67509 904.574 2.13809C900.375 -2.5069 900.224 -5.7859 901.568 -9.7159ZM911.226 -13.9229C911.067 -13.9849 910.907 -14.0459 910.747 -14.1079C909.992 -14.4039 909.231 -14.6999 908.473 -14.9629C908.451 -15.3839 908.431 -15.8069 908.42 -16.2389C909.459 -15.8379 910.563 -15.3019 911.682 -14.7229C911.536 -14.4309 911.384 -14.1599 911.226 -13.9229ZM913.238 -13.1879C913.199 -13.2019 913.161 -13.2129 913.122 -13.2269C913.227 -13.4029 913.324 -13.6079 913.424 -13.8029C913.51 -13.7569 913.596 -13.7119 913.682 -13.6659C913.538 -13.4879 913.391 -13.3289 913.238 -13.1879ZM919.193 -13.8619C919.06 -13.6819 918.919 -13.5229 918.773 -13.3809C918.718 -13.4039 918.663 -13.4289 918.608 -13.4519C918.712 -13.6369 918.809 -13.8389 918.905 -14.0409C919.001 -13.9809 919.097 -13.9219 919.193 -13.8619ZM922.492 -16.9329C922.512 -17.0339 922.539 -17.1289 922.561 -17.2289C923.479 -16.5359 924.388 -15.8519 925.281 -15.1959C925.178 -14.8819 925.062 -14.5999 924.936 -14.3409C924.068 -14.8559 923.175 -15.4249 922.279 -16.0179C922.355 -16.3119 922.428 -16.6129 922.492 -16.9329ZM947.387 -20.5259C945.366 -18.7389 943.939 -16.3859 943.328 -13.2679C943.233 -12.7839 943.106 -12.4329 942.97 -12.1629C942.82 -12.2529 942.673 -12.3379 942.519 -12.4349C942.61 -12.7179 942.693 -13.0129 942.756 -13.3349C943.386 -16.5419 945.026 -18.8469 947.387 -20.5259ZM1040.37 -164.744C1033.9 -166.367 1021.98 -170.881 1008.17 -176.108C982.359 -185.876 950.664 -197.874 935.768 -198.144C935.636 -198.45 935.509 -198.75 935.38 -199.053C949.804 -199.019 982.199 -186.718 1008.54 -176.718C1022.56 -171.392 1034.68 -166.791 1041.27 -165.136C1042.14 -164.918 1042.97 -164.853 1043.78 -164.913C1042.67 -164.539 1041.54 -164.449 1040.37 -164.744ZM1124.67 -164.107C1124.53 -183.075 1120.97 -199.838 1106.31 -203.386C1092.08 -206.828 1081.72 -203.633 1073.71 -197.87C1081.74 -204.837 1092.28 -209.05 1107.64 -205.4C1122.1 -201.968 1124.98 -183.984 1124.67 -164.107ZM1124.8 -102.966C1123.52 -104.452 1122.82 -107.167 1122.49 -110.712C1122.94 -107.607 1123.77 -105.202 1125.12 -103.662C1125.67 -103.039 1126.28 -102.674 1126.95 -102.512C1126.03 -102.248 1125.33 -102.364 1124.8 -102.966ZM1205.52 -89.6169C1205.83 -96.5779 1202.53 -102.996 1195.73 -108.69C1181.65 -120.554 1169.7 -122.948 1159.77 -121.181C1170.12 -124.026 1182.82 -122.551 1198 -109.785C1204.55 -104.306 1207.59 -98.4469 1207.29 -91.8729C1207.06 -86.7009 1204.7 -81.3559 1200.88 -75.9619C1203.65 -80.5349 1205.33 -85.0999 1205.52 -89.6169ZM1228.99 -30.4369C1223.92 -36.7759 1217.9 -40.3539 1211.11 -41.0739C1210.09 -41.1819 1209.06 -41.2219 1208.02 -41.2049C1216.86 -42.7889 1224.97 -40.6099 1231.66 -32.2319C1239.65 -22.2309 1237.81 -12.3019 1232.41 -2.8219C1236.2 -11.7279 1236.54 -21.0079 1228.99 -30.4369ZM921.331 -12.5849C921.164 -12.6129 920.995 -12.6479 920.821 -12.6889C920.852 -12.7329 920.881 -12.7829 920.913 -12.8279C921.052 -12.7469 921.193 -12.6639 921.331 -12.5849ZM929.054 -12.5779C928.991 -12.5419 928.928 -12.5019 928.862 -12.4739C928.845 -12.4669 928.827 -12.4649 928.81 -12.4579C928.153 -12.6749 927.442 -12.9859 926.694 -13.3679C926.79 -13.5619 926.879 -13.7709 926.965 -13.9859C927.675 -13.4859 928.372 -13.0149 929.054 -12.5779ZM949.75 -19.8519C947.813 -18.1149 946.448 -15.8299 945.858 -12.8129C945.635 -11.6719 945.225 -11.2809 944.955 -11.1269C944.882 -11.1579 944.81 -11.1889 944.736 -11.2219C944.978 -11.6959 945.165 -12.2469 945.29 -12.8829C945.899 -15.9879 947.476 -18.2249 949.75 -19.8519ZM1038.97 -162.405C1032.52 -164.025 1020.74 -168.47 1007.09 -173.618C982.404 -182.932 952.223 -194.312 937.06 -195.19C936.922 -195.501 936.787 -195.81 936.651 -196.118C951.419 -195.441 982.268 -183.772 1007.46 -174.237C1021.33 -168.988 1033.3 -164.455 1039.88 -162.804C1040.82 -162.568 1041.72 -162.515 1042.59 -162.593C1041.42 -162.189 1040.22 -162.092 1038.97 -162.405ZM1122.65 -160.052C1122.54 -178.96 1119.09 -195.819 1104.51 -199.416C1090.31 -202.919 1079.98 -199.735 1071.98 -194.033C1080 -200.935 1090.51 -205.154 1105.84 -201.441C1120.22 -197.962 1122.98 -179.862 1122.65 -160.052ZM1122.98 -100.939C1121.68 -102.47 1120.98 -105.28 1120.67 -108.936C1121.11 -105.734 1121.92 -103.243 1123.29 -101.658C1123.87 -100.994 1124.5 -100.614 1125.19 -100.449C1124.25 -100.174 1123.52 -100.299 1122.98 -100.939ZM1201.75 -87.4399C1202.03 -94.2239 1198.81 -100.488 1192.17 -106.056C1178.31 -117.753 1166.6 -120.103 1156.9 -118.375C1167.01 -121.186 1179.47 -119.773 1194.45 -107.159C1200.83 -101.809 1203.8 -96.0989 1203.52 -89.7049C1203.3 -84.6599 1200.98 -79.4399 1197.24 -74.1679C1199.93 -78.6149 1201.56 -83.0509 1201.75 -87.4399ZM1115.86 4.41312C1115.22 3.75711 1114.91 3.02512 1114.87 2.20111C1115.01 3.0601 1115.38 3.84612 1116.01 4.5441C1115.96 4.49811 1115.91 4.46011 1115.86 4.41312ZM1210.9 -39.0849C1217.23 -38.4149 1222.64 -35.1769 1227.43 -29.1869C1235.64 -18.9289 1233.65 -8.64989 1228.16 1.1701C1232.07 -8.07788 1232.54 -17.6989 1224.76 -27.3969C1219.36 -34.1299 1213.09 -37.8899 1206.12 -38.5729C1205.15 -38.6669 1204.18 -38.7009 1203.21 -38.6849C1205.84 -39.1899 1208.41 -39.3479 1210.9 -39.0849ZM1114.19 5.5791C1113.34 4.7341 1112.93 3.7951 1112.9 2.7361C1113.03 3.83411 1113.52 4.82709 1114.34 5.70609C1114.29 5.6611 1114.24 5.62509 1114.19 5.5791ZM1121.45 -99.6449C1122.05 -98.9439 1122.7 -98.5479 1123.42 -98.3769C1122.46 -98.1039 1121.71 -98.2449 1121.15 -98.9169C1119.92 -100.401 1119.24 -103.07 1118.92 -106.514C1119.36 -103.513 1120.15 -101.172 1121.45 -99.6449ZM1120.64 -156.599C1120.49 -175.202 1117.07 -191.843 1102.71 -195.454C1088.56 -199.012 1078.26 -195.856 1070.28 -190.233C1078.29 -197.043 1088.75 -201.24 1104.03 -197.475C1118.18 -193.983 1120.92 -176.1 1120.64 -156.599ZM937.984 -193.128C953.025 -191.878 982.326 -180.824 1006.39 -171.747C1020.09 -166.577 1031.92 -162.113 1038.48 -160.466C1039.49 -160.211 1040.46 -160.172 1041.41 -160.281C1040.16 -159.844 1038.9 -159.74 1037.57 -160.071C1031.14 -161.687 1019.49 -166.065 1006.01 -171.136C982.429 -179.999 953.751 -190.776 938.413 -192.185C938.269 -192.5 938.125 -192.815 937.984 -193.128ZM1006.54 -52.7279C1009.46 -44.8769 1010.88 -38.7759 1010.14 -35.2469C1009.1 -30.3269 1005.53 -27.7109 1000.56 -26.3079C1005.03 -28.0509 1008.3 -30.9629 1009.44 -35.9009C1010.27 -39.4969 1009.12 -45.3059 1006.54 -52.7279ZM952.178 -19.2279C950.295 -17.5349 948.968 -15.3079 948.394 -12.3649C948.127 -10.9999 947.57 -10.8079 947.386 -10.7449C947.338 -10.7279 947.276 -10.7309 947.225 -10.7189C947.491 -11.1959 947.691 -11.7659 947.821 -12.4299C948.413 -15.4639 949.953 -17.6469 952.178 -19.2279ZM1188.62 -103.425C1175 -114.94 1163.55 -117.248 1154.08 -115.576C1163.94 -118.329 1176.14 -116.964 1190.88 -104.526C1197.11 -99.3029 1200.01 -93.7419 1199.75 -87.5249C1199.52 -82.2489 1197.03 -76.8409 1193 -71.3939C1195.98 -76.0409 1197.79 -80.6809 1197.98 -85.2649C1198.25 -91.8729 1195.1 -97.9829 1188.62 -103.425ZM1004.06 -53.7599C1006.92 -45.9349 1008.3 -39.8549 1007.49 -36.3509C1006.36 -31.4589 1002.72 -28.8459 997.68 -27.4159C1002.21 -29.1729 1005.56 -32.0739 1006.79 -36.9749C1007.68 -40.5539 1006.58 -46.3529 1004.06 -53.7599ZM1072.49 55.0961C1057.89 59.5351 1045.48 55.2681 1032.33 50.7481C1024.31 47.9861 1016 45.1311 1006.66 44.0001C999.845 43.1701 995.772 46.0861 993.073 48.0111C991.815 48.9081 990.725 49.6771 990.132 49.4861C989.615 49.3161 988.74 48.3221 987.507 44.5551C984.856 36.4481 982.508 35.4051 978.247 34.1291C975.771 33.3881 972.688 32.4651 968.389 28.9411C961.286 23.1171 952.094 20.8131 943.205 18.5841C933.268 16.0921 923.882 13.7381 917.133 6.9061C914.727 4.47012 910.55 -0.921906 909.003 -10.0649C909.209 -10.1139 909.415 -10.1739 909.619 -10.2429C910.571 -10.1769 911.523 -10.2219 912.427 -10.4919C913.357 -10.3809 914.26 -10.4109 915.122 -10.6359C916.527 -10.4119 917.865 -10.4849 919.062 -11.1249C921.014 -10.4399 922.816 -10.2219 924.369 -10.9559C924.415 -10.9779 924.456 -11.0079 924.501 -11.0309C926.068 -10.4139 927.513 -10.1339 928.789 -10.3839C930.079 -10.0469 931.256 -10.0179 932.281 -10.4359C932.397 -10.4829 932.504 -10.5449 932.614 -10.6029C934.212 -9.89589 935.657 -9.56689 936.886 -9.79089C937.856 -9.50189 938.747 -9.40891 939.546 -9.55389C940.538 -9.2459 941.437 -9.15489 942.24 -9.30489C943.233 -8.98689 944.129 -8.88789 944.921 -9.03789C946.107 -8.64789 947.16 -8.5499 948.039 -8.8539C949.254 -9.2739 950.034 -10.3259 950.357 -11.9819C952.397 -22.4399 965.879 -22.5339 980.154 -22.6339C994.609 -22.7349 1009.55 -22.8399 1012.09 -34.8329C1014.76 -47.4439 993.54 -86.8949 971.072 -128.663C959.486 -150.2 947.712 -172.091 939.375 -190.087C954.567 -188.327 982.366 -177.886 1005.3 -169.264C1018.85 -164.172 1030.54 -159.775 1037.09 -158.132C1043.9 -156.418 1049.07 -163.247 1055.04 -171.151C1064.73 -183.964 1076.78 -199.913 1102.22 -193.514C1121.46 -188.677 1119.29 -156.856 1117.56 -131.288C1116.51 -115.82 1115.6 -102.462 1119.62 -97.6379C1122.49 -94.1789 1126.72 -97.5029 1132.07 -101.716C1143.5 -110.725 1160.78 -124.336 1187.33 -101.896C1193.4 -96.7999 1196.23 -91.3869 1195.98 -85.3469C1195.25 -67.5919 1167.92 -48.2349 1143.81 -31.1579C1124.84 -17.7189 1108.46 -6.11189 1107.83 2.7821C1107.67 5.04309 1108.51 7.06012 1110.33 8.77512C1113.15 11.4441 1116.3 12.5981 1119.72 12.5981C1129.87 12.5961 1142.34 2.39311 1155.39 -8.58289C1156.4 -9.40489 1157.41 -10.2319 1158.43 -11.0619C1158.63 -11.2269 1158.84 -11.3919 1159.04 -11.5569C1159.38 -11.8299 1159.73 -12.1019 1160.07 -12.3759C1161.03 -13.1389 1162 -13.9069 1162.97 -14.6749C1165.48 -16.6199 1168.03 -18.5819 1170.59 -20.5199C1175.43 -24.0669 1180.34 -27.6039 1185.23 -30.9269C1185.41 -31.0539 1185.6 -31.1789 1185.79 -31.3049C1192.68 -35.0539 1199.45 -37.2179 1205.92 -36.5819C1212.43 -35.9449 1218.08 -32.5309 1223.2 -26.1459C1236.4 -9.6929 1223.73 7.0611 1212.55 21.8431C1205.01 31.8271 1197.85 41.2901 1199.41 49.6431C1171.22 55.7301 1141.64 60.4221 1123.16 60.4221H1122.96C1116.2 60.4101 1109.29 58.7051 1102.61 57.0571C1092.68 54.6071 1082.42 52.0731 1072.49 55.0961ZM1000.08 46.4841C1001.84 45.9451 1003.91 45.6821 1006.42 45.9851C1015.55 47.0911 1023.75 49.9121 1031.68 52.6391C1035.16 53.8341 1038.58 55.0071 1042.01 56.0181C1038.07 55.0401 1034.14 53.8161 1030.14 52.5701C1022.05 50.0451 1013.68 47.4351 1004.21 46.4721C1002.7 46.3181 1001.34 46.3431 1000.08 46.4841ZM1004 48.4611C1013.28 49.4041 1021.55 51.9841 1029.55 54.4791C1032.57 55.4211 1035.55 56.3451 1038.53 57.1691C1035.02 56.3541 1031.51 55.3771 1027.95 54.3801C1019.79 52.0961 1011.36 49.7331 1001.75 48.9391C1000.26 48.8171 998.91 48.8581 997.661 49.0051C999.431 48.4801 1001.51 48.2081 1004 48.4611ZM939.155 21.1211C947.88 24.1211 956.904 27.2221 963.53 32.6691C968.209 36.5271 971.661 37.5231 974.433 38.3251C978.208 39.4151 980.288 40.0161 982.83 47.4331C984.117 51.2281 985.251 53.0351 986.704 53.6181C985.951 54.0251 985.331 54.2441 984.872 54.0861C984.001 53.7821 983.041 52.1241 981.94 49.0181C978.983 40.6781 975.788 39.7901 971.744 38.6661C968.879 37.8701 965.634 36.9681 961.214 33.3051C955.101 28.2611 946.919 24.5251 938.796 20.9981C938.916 21.0391 939.036 21.0801 939.155 21.1211ZM904.041 -9.9339C904.201 -9.92889 904.362 -9.9239 904.525 -9.9169C904.791 -4.7119 906.269 0.356094 909.972 4.95511C909.555 4.5531 909.148 4.14511 908.758 3.7271C904.447 -0.902893 903.516 -5.1869 904.041 -9.9339ZM912.945 5.31812C908.572 0.760101 906.793 -4.2159 906.517 -9.83189C906.683 -9.83089 906.85 -9.83289 907.017 -9.83589C908.299 -2.15089 911.357 3.06711 913.857 6.21112C913.549 5.91711 913.24 5.62512 912.945 5.31812ZM987.492 51.7911C986.687 51.5181 985.756 49.8361 984.724 46.7881C981.842 38.3831 978.967 37.5531 974.988 36.4031C972.392 35.6531 969.162 34.7201 964.8 31.1261C959.378 26.6671 952.54 23.7611 945.547 21.2381C953.312 23.2261 961.096 25.5481 967.122 30.4881C971.73 34.2661 975.026 35.2531 977.674 36.0451C981.209 37.1041 983.157 37.6861 985.607 45.1771C986.809 48.8521 987.881 50.6471 989.236 51.2621C988.504 51.6941 987.909 51.9361 987.492 51.7911ZM1001.35 -55.4769C1004.33 -47.3439 1005.74 -41.0419 1004.85 -37.4599C1003.64 -32.6059 999.922 -29.9939 994.834 -28.5349C999.411 -30.3079 1002.83 -33.1959 1004.14 -38.0469C1005.13 -41.7189 1003.99 -47.7539 1001.35 -55.4769ZM1119.24 63.7761H1119.13C1112.03 63.7761 1105.09 61.5391 1098.38 59.3741C1094.17 58.0181 1089.9 56.6471 1085.58 55.8281C1090.97 56.2441 1096.46 57.5991 1102.13 58.9981C1108.93 60.6751 1115.95 62.4091 1122.96 62.4221H1123.13C1141.11 62.4221 1172.44 57.3541 1199.93 51.5351C1199.95 51.5901 1199.97 51.6451 1199.99 51.7001C1171.52 57.9781 1137.86 63.7121 1119.24 63.7761ZM1206.82 40.7201C1207.49 42.9951 1208.89 45.0891 1211.02 47.0371C1210.24 47.2191 1209.45 47.4011 1208.66 47.5821C1207.58 46.3181 1206.82 45.0011 1206.39 43.6201C1205.82 41.7471 1205.86 39.7711 1206.37 37.7101C1206.39 38.7261 1206.53 39.7301 1206.82 40.7201ZM1128.8 -107.686C1129.81 -106.588 1131 -106.334 1132.38 -106.665C1129.53 -104.595 1127.68 -103.79 1126.62 -104.985C1122.87 -109.244 1124.02 -123.803 1125.23 -139.218C1127.45 -167.233 1130.2 -202.099 1108.11 -207.347C1088.65 -211.967 1076.38 -204.33 1067.51 -194.504C1076.38 -206.868 1088.97 -218.438 1111.26 -213.333C1132.49 -208.473 1129.46 -173.153 1127.03 -144.772C1125.49 -126.808 1124.28 -112.619 1128.8 -107.686ZM998.8 -56.7389C1001.78 -48.5249 1003.17 -42.1569 1002.2 -38.5679C1000.91 -33.7609 997.138 -31.1499 992.017 -29.6579C996.622 -31.4479 1000.09 -34.3229 1001.48 -39.1119C1002.56 -42.8069 1001.45 -48.9119 998.8 -56.7389ZM915.034 -16.4989C914.914 -16.1049 914.789 -15.7419 914.657 -15.4129C914.548 -15.4709 914.44 -15.5279 914.332 -15.5849C914.288 -15.6089 914.244 -15.6329 914.199 -15.6569C914.321 -16.0189 914.441 -16.3929 914.55 -16.8019C914.711 -16.7019 914.872 -16.6009 915.034 -16.4989ZM898.054 -4.74889C898.399 -5.20789 898.648 -5.76489 898.851 -6.36589C898.701 -3.57089 899.61 -0.670898 902.445 2.71611C901.719 2.00011 901.022 1.28011 900.387 0.555115C898.913 -1.12689 898.052 -2.48988 897.661 -3.69589C897.821 -4.01788 897.949 -4.37189 898.054 -4.74889ZM1205.13 52.6911C1204.42 52.8591 1203.71 53.0261 1202.99 53.1931C1202.97 53.1611 1202.95 53.1291 1202.93 53.0971C1203.64 52.9371 1204.35 52.7771 1205.06 52.6171C1205.08 52.6421 1205.1 52.6671 1205.13 52.6911ZM1211.52 33.7841C1212.61 37.7781 1216.03 41.2631 1222.01 44.3911C1219.2 45.0901 1216.35 45.7831 1213.45 46.4671C1210.97 44.5041 1209.4 42.4041 1208.74 40.1531C1207.69 36.6021 1208.91 32.6951 1211.4 28.5451C1211.04 30.3211 1211.05 32.0681 1211.52 33.7841ZM1130.82 -150.163C1129.1 -131.449 1127.74 -116.667 1132.48 -111.701C1133.43 -110.705 1134.57 -110.473 1135.88 -110.777C1133.27 -108.891 1131.29 -107.936 1130.28 -109.038C1126.35 -113.323 1127.65 -128.517 1129.02 -144.602C1131.52 -173.754 1134.63 -210.035 1111.71 -215.282C1092.36 -219.716 1080.06 -212.3 1071.18 -202.367C1080.05 -214.963 1092.71 -226.16 1114.88 -221.257C1136.9 -216.391 1133.53 -179.669 1130.82 -150.163ZM965.198 -28.2559C978.683 -29.4309 992.628 -30.6459 996.175 -41.2539C1000.03 -52.7829 981.895 -88.3529 962.695 -126.012C951.137 -148.681 939.349 -171.809 933.063 -188.624C940.081 -171.406 951.684 -149.091 963.663 -126.058C982.904 -89.0609 1002.8 -50.8029 999.563 -39.6709C996.739 -29.9609 983.775 -29.1819 970.05 -28.3559C956.07 -27.5159 941.628 -26.6469 938.525 -15.2869C937.689 -15.9359 936.834 -16.6219 935.971 -17.3329C939.687 -26.0279 952.107 -27.1159 965.198 -28.2559ZM974.373 63.3191C973.264 62.8941 972.128 61.1881 970.798 57.9501C967.471 49.8511 963.43 48.8621 958.751 47.7171C955.353 46.8851 951.501 45.9421 946.865 42.0431C942.128 38.0591 935.539 33.1661 928.563 27.9851C916.299 18.8771 902.591 8.68912 894.606 0.28212C895.437 -0.0738831 896.066 -0.646881 896.536 -1.38489C897.084 -0.385895 897.846 0.690109 898.883 1.87411C905.863 9.8381 918.171 17.1821 930.075 24.2831C938.718 29.4401 946.881 34.3111 952.758 39.2121C957.633 43.2771 961.572 44.3021 964.737 45.1261C968.946 46.2211 971.726 46.9441 974.501 54.2001C976.002 58.1251 977.286 59.9721 978.928 60.5761C980.672 61.2131 982.329 60.3031 984.43 59.1501C987.149 57.6581 990.862 55.6081 996.756 55.8811C1006.46 56.3221 1014.93 58.1581 1023.12 59.9331C1031.54 61.7551 1039.66 63.5021 1048.24 63.4761C1038.35 64.4851 1029.27 63.1011 1019.13 61.5431C1010.74 60.2551 1002.07 58.9241 991.94 58.8281C991.853 58.8281 991.767 58.8271 991.682 58.8271C985.607 58.8271 981.655 60.7261 978.758 62.1171C976.819 63.0481 975.42 63.7181 974.373 63.3191ZM1204.39 54.9741L1204.35 54.9301C1205.13 54.7461 1205.91 54.5631 1206.68 54.3791C1206.73 54.3691 1206.78 54.3571 1206.82 54.3461C1206.83 54.3551 1206.84 54.3641 1206.85 54.3731C1206.04 54.5721 1205.22 54.7721 1204.39 54.9741ZM1216.23 26.9171C1217.61 32.3811 1223.62 36.9661 1234.87 41.0411C1231.69 41.9061 1228.4 42.7731 1225.02 43.6341C1218.31 40.5211 1214.49 37.0851 1213.44 33.2561C1212.55 29.9811 1213.71 26.4241 1216.08 22.6651C1215.84 24.0981 1215.87 25.5161 1216.23 26.9171ZM991.145 -60.6319C994.146 -52.1129 995.49 -45.5099 994.279 -41.8889C992.694 -37.1479 988.655 -34.5289 983.314 -32.9409C988.122 -34.7859 991.852 -37.6359 993.527 -42.3229C994.872 -46.0879 993.82 -52.4599 991.145 -60.6319ZM1218.58 23.5011C1220.06 29.5951 1227.47 34.6401 1241.68 39.1371C1240.56 39.4591 1239.43 39.7811 1238.27 40.1041C1226.07 36.0651 1219.46 31.5621 1218.16 26.4271C1217.79 24.9261 1217.87 23.3681 1218.33 21.7641C1218.36 22.3431 1218.44 22.9221 1218.58 23.5011ZM1136.49 -158.247C1134.5 -138.403 1132.93 -122.729 1137.99 -117.727C1138.87 -116.867 1139.88 -116.631 1141.06 -116.874C1138.57 -115.055 1136.68 -114.146 1135.75 -115.105C1131.55 -119.422 1133.08 -135.571 1134.7 -152.669C1137.62 -183.526 1141.26 -221.928 1117.11 -227.175C1097.78 -231.375 1085.38 -224.16 1076.47 -214.045C1085.36 -226.972 1098.18 -237.794 1120.3 -233.145C1143.51 -228.269 1139.62 -189.444 1136.49 -158.247ZM958.677 -124.383C948.776 -144.485 938.676 -164.99 933.1 -180.289C939.337 -164.688 949.297 -144.941 959.562 -124.588C977.184 -89.6509 995.406 -53.5239 991.644 -42.9959C988.36 -33.8039 975.809 -32.5389 962.522 -31.1999C950.147 -29.9529 937.418 -28.6629 932.46 -20.2909C931.759 -20.8929 931.069 -21.4899 930.393 -22.0739C935.573 -28.2869 946.423 -29.6839 957.778 -31.1399C970.761 -32.8049 984.188 -34.5259 988.216 -44.4619C992.654 -55.4039 976.15 -88.9099 958.677 -124.383ZM1223.3 16.7691C1224.9 23.8931 1235.11 29.6821 1255.38 34.9221C1252.26 35.9601 1248.84 37.0281 1245.2 38.1091C1230.01 33.6611 1221.91 28.7091 1220.53 23.0291C1219.86 20.2661 1220.8 17.3221 1222.77 14.2391C1222.89 14.1171 1223 13.9941 1223.11 13.8721C1223.03 14.8381 1223.08 15.8031 1223.3 16.7691ZM956.045 -123.185C947.184 -141.666 938.157 -160.503 933.061 -174.803C938.776 -160.267 947.693 -142.156 956.882 -123.499C973.392 -89.9829 990.463 -55.3249 986.363 -45.2139C982.774 -36.3609 970.508 -34.7889 957.523 -33.1239C946.214 -31.6729 934.607 -30.1829 928.876 -23.3839C928.267 -23.9099 927.663 -24.4289 927.069 -24.9369C932.74 -29.9519 942.591 -31.4929 952.853 -33.0939C965.493 -35.0659 978.562 -37.1049 982.901 -46.5959C987.717 -57.1319 972.333 -89.2159 956.045 -123.185ZM961.584 75.0251C960.067 74.5401 958.613 72.7181 956.872 69.1191C953.083 61.2891 947.979 60.1941 942.575 59.0361C938.267 58.1131 933.813 57.1591 928.929 52.9651C916.591 42.3731 886.302 9.37912 874.096 -6.45189C876.167 -5.26489 878.249 -4.12289 880.274 -3.11089C892.454 11.6621 921.771 39.0151 934.809 50.1171C939.972 54.5131 944.556 55.5461 948.6 56.4571C953.535 57.5681 957.432 58.4461 960.625 65.4761C964.431 73.8571 967.196 73.2101 972.596 71.0831C975.538 69.9241 979.201 68.4821 984.672 68.2451C995.052 67.8021 1003.83 68.3231 1012.31 68.8271C1019.39 69.2481 1025.95 69.6311 1032.62 69.4171C1024.4 70.2751 1016.53 70.3031 1007.85 70.3301C999.257 70.3561 990.368 70.3841 979.681 71.1971C974.219 71.6171 970.286 72.9801 967.413 73.9751C964.872 74.8551 963.037 75.4881 961.584 75.0251ZM1171.82 79.6541C1140.85 87.6991 1101.08 96.2821 1082.01 97.3221C1073.51 97.7911 1069.12 90.2041 1064.48 82.1771C1060.55 75.3821 1056.51 68.4141 1049.71 67.3291C1049.95 67.2771 1050.18 67.2331 1050.41 67.1791C1058.82 65.2571 1063.88 71.8441 1069.22 78.8121C1074.44 85.6071 1079.83 92.6271 1088.77 92.6271C1089.03 92.6271 1089.29 92.6211 1089.55 92.6091C1109.1 91.7401 1148.93 83.4361 1179.73 75.5921C1194.32 71.8761 1207.28 68.1961 1217.68 64.8221C1218.24 65.0221 1218.83 65.2191 1219.42 65.4141C1209.46 69.0771 1194.08 73.8691 1171.82 79.6541ZM1225.67 13.3691C1227.27 20.7991 1238.52 26.8381 1261.06 32.3751C1261.38 32.4551 1261.67 32.5381 1261.93 32.6221C1260.93 32.9941 1259.89 33.3711 1258.8 33.7531C1258.55 33.6781 1258.31 33.6021 1258.04 33.5341C1237.43 28.4211 1226.7 22.7931 1225.25 16.3301C1224.95 14.9771 1225.06 13.5821 1225.5 12.1511C1225.54 12.5571 1225.58 12.9621 1225.67 13.3691ZM978.526 -67.1109C981.526 -58.0869 982.753 -51.0829 981.082 -47.4279C978.95 -42.7629 974.381 -40.0999 968.61 -38.3139C973.814 -40.2819 978.044 -43.1199 980.247 -47.6679C982.121 -51.5359 981.214 -58.3529 978.526 -67.1109ZM890.523 -7.02689C892.321 -6.84189 894.093 -6.83589 895.699 -7.15388C895.636 -6.94589 895.586 -6.73489 895.543 -6.5219C894.129 -6.01988 892.237 -6.0929 890.121 -6.51689C890.194 -6.69489 890.327 -6.86488 890.523 -7.02689ZM975.914 -68.7399C978.984 -59.4609 980.241 -52.2429 978.447 -48.5399C976.203 -43.9049 971.55 -41.2279 965.716 -39.3959C970.973 -41.3929 975.28 -44.2319 977.587 -48.7339C979.604 -52.6669 978.676 -59.7079 975.914 -68.7399ZM1230.41 6.61609C1231.89 14.1371 1243.86 20.3581 1268.06 26.1941C1270.72 26.8371 1271.6 27.6031 1271.55 28.0631C1271.53 28.2091 1271.46 28.3671 1271.38 28.5311C1270.77 28.8611 1270.09 29.2031 1269.35 29.5511C1268.35 28.1521 1265.97 27.5701 1265.03 27.3401C1242.81 21.9331 1231.35 16.1241 1230 9.58109C1229.8 8.63208 1229.83 7.66409 1230.04 6.67911C1230.15 6.56808 1230.25 6.45609 1230.36 6.34509C1230.38 6.43509 1230.39 6.52509 1230.41 6.61609ZM1284.02 -69.9499C1269.79 -88.3499 1215.7 -54.0589 1172.24 -26.5059C1159.5 -18.4249 1147.46 -10.7929 1138.58 -5.9529C1126.29 0.7491 1123.87 -0.0748901 1123.41 -0.740891C1123.32 -0.867889 1123.23 -1.06189 1123.3 -1.4399C1124.16 -5.7569 1139.97 -15.8059 1158.27 -27.4419C1196.51 -51.7529 1248.89 -85.0499 1250.8 -115.47C1251.38 -124.647 1247.22 -132.989 1238.44 -140.264C1201.17 -171.142 1172.77 -146.966 1157.51 -133.978C1152.67 -129.859 1148.1 -125.976 1146.7 -127.245C1141.93 -131.588 1143.92 -149.667 1146.03 -168.808C1149.81 -203.077 1154.51 -245.725 1127.93 -250.965C1093.03 -257.843 1079.39 -228.901 1070.37 -209.749C1069.49 -207.882 1068.65 -206.089 1067.82 -204.411C1067.8 -204.361 1067.77 -204.311 1067.75 -204.262C1064.13 -196.899 1060.93 -191.816 1057.12 -192.769C1050.45 -194.443 1036.9 -199.743 1021.2 -205.879C987.36 -219.11 945.246 -235.575 930.885 -232.67C928.943 -232.277 927.538 -231.183 926.709 -229.417C925.921 -227.739 925.719 -225.425 925.99 -222.596C925.953 -221.705 925.997 -220.726 926.095 -219.686C926.059 -218.794 926.107 -217.811 926.205 -216.772C926.169 -215.865 926.21 -214.873 926.314 -213.813C926.261 -212.456 926.369 -210.925 926.622 -209.236C926.466 -207.994 926.465 -206.585 926.619 -205.008C926.571 -203.673 926.666 -202.183 926.907 -200.536C926.696 -198.901 926.762 -196.965 927.074 -194.764C926.906 -193.525 926.898 -192.113 927.034 -190.545C926.992 -189.661 927.017 -188.705 927.101 -187.683C927.052 -186.752 927.08 -185.737 927.172 -184.653C926.58 -172.469 938.173 -147.09 950.362 -120.418C963.983 -90.6089 978.069 -59.7859 973.174 -50.7559C968.838 -42.7579 957.328 -40.4759 945.141 -38.0599C936.171 -36.2809 927.015 -34.4619 920.693 -30.1319C916.473 -33.3079 912.943 -35.2049 910.538 -34.4209C909.328 -34.0259 908.521 -33.0329 908.13 -31.4759C907.736 -30.9829 907.442 -30.3479 907.241 -29.5839C906.854 -29.0879 906.562 -28.4549 906.355 -27.7019C905.972 -27.1979 905.679 -26.5619 905.466 -25.8109C905.005 -25.1859 904.661 -24.3829 904.439 -23.4039C904.385 -23.1699 904.316 -22.9589 904.257 -22.7329C903.635 -22.1209 903.151 -21.2859 902.819 -20.2169C902.326 -19.4859 901.95 -18.5639 901.7 -17.4469C901.695 -17.4249 901.687 -17.4069 901.682 -17.3849C901.028 -16.6709 900.515 -15.7149 900.143 -14.4979C898.288 -12.4339 895.822 -11.4079 893.59 -10.5809C892.383 -10.3599 891.161 -10.2359 890.009 -10.1189C888.788 -9.9959 887.692 -9.8759 886.777 -9.6519C885.725 -9.8689 884.704 -10.1049 883.758 -10.3249C880.708 -11.0339 878.616 -11.5099 877.402 -11.0259C877.401 -11.0269 877.399 -11.0269 877.398 -11.0279C873.331 -12.7699 871.122 -13.6699 869.813 -13.6179C867.659 -14.6079 866.351 -15.0469 865.493 -14.9439C863.376 -16.0029 862.101 -16.4499 861.272 -16.3149C858.399 -17.8559 857.154 -18.1249 856.392 -17.3579C855.481 -16.4409 856.387 -14.9609 856.823 -14.2499C865.119 -0.689896 903.589 49.4881 916.859 61.0251C922.283 65.7391 927.715 66.8261 932.508 67.7851C938.207 68.9251 943.129 69.9091 946.749 76.7521C951.614 85.9431 954.967 84.9661 961.646 83.0191C964.452 82.2021 967.943 81.1841 972.581 80.6031C983.205 79.2801 992.352 78.3991 1000.42 77.6231C1013.47 76.3671 1024.74 75.2831 1037.83 72.8271C1046.27 71.2421 1049.65 80.2511 1053.22 89.7871C1056.84 99.4421 1060.57 109.414 1070.01 109.414C1070.33 109.414 1070.66 109.403 1070.99 109.38C1089.46 108.096 1129.27 99.1061 1160.53 90.7661C1178.14 86.0691 1194.02 81.3251 1205.25 77.4071C1221.64 71.6891 1224.64 68.9901 1225.25 67.6241C1226.9 66.6581 1228.08 65.7501 1228.66 64.9221C1231.09 63.5661 1232.06 62.6091 1232.45 61.9261C1236.23 59.7791 1236.36 58.6271 1236.43 57.9781C1236.44 57.9191 1236.43 57.8661 1236.43 57.8091C1242.5 54.9711 1243.66 53.2561 1243.8 52.0201C1243.8 51.9841 1243.8 51.9521 1243.8 51.9171C1247.22 50.2561 1249.58 48.7151 1250.61 47.3491C1253.13 45.8651 1254.69 44.4581 1254.89 43.1921C1258.15 41.6101 1260.55 40.0741 1261.66 38.6491C1263.34 37.6521 1264.6 36.6811 1265.34 35.7521C1267.01 34.7601 1268.27 33.7911 1269.02 32.8601C1270.7 31.8671 1271.96 30.8961 1272.72 29.9601C1275.44 28.3491 1277.1 26.7861 1277.28 25.3351C1277.62 22.4931 1273.41 21.4861 1272.02 21.1561C1248.2 15.4581 1236 9.4791 1234.75 2.87711C1234.69 2.5601 1234.67 2.24011 1234.66 1.91811C1234.78 1.7881 1234.91 1.6591 1235.03 1.5291C1235.31 1.2691 1235.59 1.0101 1235.87 0.750107C1238.28 -1.4879 1240.73 -3.7719 1243.12 -6.1039C1245.48 -8.23889 1247.82 -10.4159 1250.04 -12.6369C1252.67 -14.8289 1255.27 -17.0669 1257.72 -19.3539C1259.38 -20.7479 1261 -22.1599 1262.55 -23.5919C1264.05 -24.8359 1265.51 -26.0989 1266.92 -27.3809C1268.52 -28.6829 1270.08 -30.0059 1271.57 -31.3519C1280.29 -38.3129 1287.51 -45.9069 1288.79 -54.2799C1289.59 -59.5429 1287.99 -64.8149 1284.02 -69.9499Z" fill="url(#paint0_linear_0_619)"/>
</g>
<defs>
<linearGradient id="paint0_linear_0_619" x1="1235.48" y1="-84.6332" x2="1005.95" y2="-199.798" gradientUnits="userSpaceOnUse">
<stop stop-color="white" stop-opacity="0.01"/>
<stop offset="1" stop-color="white" stop-opacity="0.24"/>
</linearGradient>
</defs>
</svg>
